<?xml version="1.0" encoding="UTF-8" standalone="no"?>
<!DOCTYPE svg PUBLIC "-//W3C//DTD SVG 1.1//EN" "http://www.w3.org/Graphics/SVG/1.1/DTD/svg11.dtd">
<svg width="100%" height="100%" viewBox="0 0 849 850" version="1.1" xmlns="http://www.w3.org/2000/svg" xmlns:xlink="http://www.w3.org/1999/xlink" xml:space="preserve" xmlns:serif="http://www.serif.com/" style="fill-rule:evenodd;clip-rule:evenodd;stroke-linejoin:round;stroke-miterlimit:2;">
    <g transform="matrix(1,0,0,1,-75,-75)">
        <g transform="matrix(1,0,0,1,5.5,-5.5)">
            <circle cx="494.5" cy="505.5" r="110.5" style="fill:rgb(255,223,173);"/>
        </g>
        <path id="n" d="M460.692,363L459,363L459,99.048L500,75L541,99.048L541,363L539.308,363C526.815,359.418 513.63,357.5 500,357.5C486.37,357.5 473.185,359.418 460.692,363Z" style="fill:rgb(255,223,173);"/>
        <path id="e" d="M636.503,459L899.952,459L924,500L899.952,541L636.503,541C640.404,528.016 642.5,514.251 642.5,500C642.5,485.749 640.404,471.984 636.503,459Z" style="fill:rgb(255,223,173);"/>
        <path id="s" d="M539.308,637L541,637L541,900.952L500,925L459,900.952L459,637L460.692,637C473.185,640.582 486.37,642.5 500,642.5C513.63,642.5 526.815,640.582 539.308,637Z" style="fill:rgb(255,223,173);"/>
        <path id="w" d="M363,460.692C359.418,473.185 357.5,486.37 357.5,500C357.5,513.63 359.418,526.815 363,539.308L363,541L99.048,541L75,500L99.048,459L363,459L363,460.692Z" style="fill:rgb(255,223,173);"/>
        <g id="n1" serif:id="n" transform="matrix(-1.03168,1.03168,0.355229,0.355229,620.83,-56.2754)">
            <path d="M101.218,672L89,611.5L101.218,551L217.918,551L230,611.5L217.918,672L101.218,672Z" style="fill:rgb(255,223,173);"/>
        </g>
        <g id="n2" serif:id="n" transform="matrix(-1.03168,1.03168,0.355229,0.355229,272.83,291.725)">
            <path d="M101.218,672L89,611.5L101.218,551L217.918,551L230,611.5L217.918,672L101.218,672Z" style="fill:rgb(255,223,173);"/>
        </g>
        <g id="n3" serif:id="n" transform="matrix(-1.03168,-1.03168,-0.355229,0.355229,1055.28,620.83)">
            <path d="M101.218,672L89,611.5L101.218,551L217.918,551L230,611.5L217.918,672L101.218,672Z" style="fill:rgb(255,223,173);"/>
        </g>
        <g id="n4" serif:id="n" transform="matrix(1.03168,1.03168,0.355229,-0.355229,-56.2754,378.17)">
            <path d="M101.218,672L89,611.5L101.218,551L217.918,551L230,611.5L217.918,672L101.218,672Z" style="fill:rgb(255,223,173);"/>
        </g>
    </g>
</svg>
